<svg width="22" height="22" viewBox="0 0 22 22" fill="none" xmlns="http://www.w3.org/2000/svg">
<path fill-rule="evenodd" clip-rule="evenodd" d="M11.0002 5.08732C9.83187 5.08732 8.88478 6.04052 8.88478 7.21636C8.88478 8.39219 9.83187 9.34539 11.0002 9.34539C12.1685 9.34539 13.1155 8.39219 13.1155 7.21636C13.1155 6.04052 12.1685 5.08732 11.0002 5.08732ZM7.47452 7.21636C7.47452 5.25664 9.05301 3.66797 11.0002 3.66797C12.9473 3.66797 14.5258 5.25664 14.5258 7.21636C14.5258 9.17608 12.9473 10.7647 11.0002 10.7647C9.05301 10.7647 7.47452 9.17608 7.47452 7.21636Z" fill="white"/>
<path fill-rule="evenodd" clip-rule="evenodd" d="M9.6091 13.6035C8.17058 13.6035 7.00444 14.7771 7.00444 16.2249C7.00444 16.2531 7.00681 16.2759 7.00997 16.2929C7.01039 16.2952 7.01081 16.2973 7.01123 16.2993C7.38783 16.5091 8.45353 16.9153 11.0002 16.9153C13.5468 16.9153 14.6125 16.5091 14.9891 16.2993C14.9895 16.2973 14.9899 16.2952 14.9904 16.2929C14.9935 16.2759 14.9959 16.2531 14.9959 16.2249C14.9959 14.7771 13.8297 13.6035 12.3912 13.6035H9.6091ZM5.59418 16.2249C5.59418 13.9932 7.39172 12.1841 9.6091 12.1841H12.3912C14.6086 12.1841 16.4061 13.9932 16.4061 16.2249C16.4061 16.6231 16.2721 17.1874 15.7393 17.5025C15.092 17.8854 13.7561 18.3346 11.0002 18.3346C8.24419 18.3346 6.9083 17.8854 6.26098 17.5025C5.72825 17.1874 5.59418 16.6231 5.59418 16.2249Z" fill="white"/>
<path fill-rule="evenodd" clip-rule="evenodd" d="M15.2554 5.13872C15.357 4.76035 15.7441 4.53652 16.12 4.63879C17.4068 4.98881 18.2865 6.26065 18.2865 7.68947C18.2865 9.19957 17.2568 10.5818 15.7851 10.7597C15.3985 10.8064 15.0474 10.5289 15.0009 10.1397C14.9545 9.75056 15.2303 9.3972 15.6169 9.35045C16.2606 9.27263 16.8762 8.60891 16.8762 7.68947C16.8762 6.81664 16.3456 6.17043 15.7521 6.00898C15.3761 5.90672 15.1538 5.51709 15.2554 5.13872Z" fill="white"/>
<path fill-rule="evenodd" clip-rule="evenodd" d="M16.8893 12.7579C16.9638 12.3732 17.3341 12.1222 17.7163 12.1972C19.1396 12.4766 20.1668 13.7315 20.1668 15.191V15.5747C20.1668 15.9389 20.0583 16.4892 19.553 16.8144C19.2371 17.0176 18.7583 17.2269 18.0346 17.3743C17.6529 17.452 17.2808 17.2036 17.2036 16.8195C17.1264 16.4353 17.3732 16.0609 17.7549 15.9831C18.2917 15.8738 18.595 15.7364 18.7513 15.6444L18.7515 15.6431C18.7544 15.626 18.7566 15.6031 18.7566 15.5747V15.191C18.7566 14.4107 18.2074 13.7397 17.4464 13.5903C17.0642 13.5153 16.8147 13.1426 16.8893 12.7579Z" fill="white"/>
<path fill-rule="evenodd" clip-rule="evenodd" d="M6.74497 10.2402C6.64336 10.6186 6.25623 10.8424 5.88029 10.7402C4.5935 10.3901 3.71384 9.1183 3.71384 7.68947C3.71384 6.17938 4.74354 4.79719 6.21521 4.61927C6.60186 4.57253 6.95296 4.8501 6.9994 5.23924C7.04585 5.62839 6.77006 5.98175 6.3834 6.0285C5.73969 6.10632 5.12409 6.77004 5.12409 7.68947C5.12409 8.56231 5.65468 9.20851 6.24824 9.36997C6.62418 9.47223 6.84658 9.86186 6.74497 10.2402Z" fill="white"/>
<path fill-rule="evenodd" clip-rule="evenodd" d="M5.11106 12.7579C5.03651 12.3732 4.66622 12.1222 4.28399 12.1972C2.86071 12.4766 1.8335 13.7315 1.8335 15.191V15.5747C1.8335 15.9389 1.94201 16.4892 2.44737 16.8144C2.76325 17.0176 3.24198 17.2269 3.96575 17.3743C4.34745 17.452 4.71948 17.2036 4.7967 16.8195C4.87393 16.4353 4.6271 16.0609 4.2454 15.9831C3.70859 15.8738 3.40532 15.7364 3.24904 15.6444L3.24883 15.6431C3.24591 15.626 3.24375 15.6031 3.24375 15.5747V15.191C3.24375 14.4107 3.79297 13.7397 4.55394 13.5903C4.93617 13.5153 5.1856 13.1426 5.11106 12.7579Z" fill="white"/>
</svg>
