<svg width="30" height="30" viewBox="0 0 30 30" fill="none" xmlns="http://www.w3.org/2000/svg">
<circle cx="15" cy="15" r="15" fill="#FB1704" fill-opacity="0.12"/>
<path d="M9 11H10.3333H21" stroke="#FA0000" stroke-width="1.5" stroke-linecap="round" stroke-linejoin="round"/>
<path d="M12.3333 11.0026V9.66927C12.3333 9.31565 12.4737 8.97651 12.7238 8.72646C12.9738 8.47641 13.313 8.33594 13.6666 8.33594H16.3333C16.6869 8.33594 17.026 8.47641 17.2761 8.72646C17.5261 8.97651 17.6666 9.31565 17.6666 9.66927V11.0026M19.6666 11.0026V20.3359C19.6666 20.6896 19.5261 21.0287 19.2761 21.2787C19.026 21.5288 18.6869 21.6693 18.3333 21.6693H11.6666C11.313 21.6693 10.9738 21.5288 10.7238 21.2787C10.4737 21.0287 10.3333 20.6896 10.3333 20.3359V11.0026H19.6666Z" stroke="#FA0000" stroke-width="1.5" stroke-linecap="round" stroke-linejoin="round"/>
</svg>
