<svg width="30" height="30" viewBox="0 0 30 30" fill="none" xmlns="http://www.w3.org/2000/svg">
<circle cx="15" cy="15" r="15" fill="#0094FF" fill-opacity="0.12"/>
<path fill-rule="evenodd" clip-rule="evenodd" d="M17.2408 8.93975C18.0511 8.12946 19.3648 8.12946 20.1751 8.93975L21.0591 9.82372C21.8694 10.634 21.8694 11.9478 21.0591 12.7581L12.7595 21.0576C12.3704 21.4468 11.8426 21.6654 11.2924 21.6654H8.89938C8.58685 21.6654 8.3335 21.412 8.3335 21.0995V18.7065C8.3335 18.1562 8.5521 17.6285 8.94122 17.2393L17.2408 8.93975ZM19.3749 9.74003C19.0066 9.37171 18.4094 9.37171 18.0411 9.74003L16.4902 11.2909L18.708 13.5086L20.2588 11.9578C20.6271 11.5895 20.6271 10.9923 20.2588 10.624L19.3749 9.74003ZM17.9077 14.3089L15.6899 12.0912L9.74149 18.0396C9.56462 18.2165 9.46526 18.4564 9.46526 18.7065V20.5336H11.2924C11.5425 20.5336 11.7824 20.4342 11.9592 20.2574L17.9077 14.3089Z" fill="#0094FF"/>
</svg>
