<svg width="30" height="30" viewBox="0 0 30 30" fill="none" xmlns="http://www.w3.org/2000/svg">
<circle cx="15" cy="15" r="15" fill="#FFC121" fill-opacity="0.12"/>
<path fill-rule="evenodd" clip-rule="evenodd" d="M14.9999 9.35767C11.8845 9.35767 9.35889 11.8832 9.35889 14.9987C9.35889 18.1142 11.8845 20.6397 14.9999 20.6397C18.1154 20.6397 20.6409 18.1142 20.6409 14.9987C20.6409 11.8832 18.1154 9.35767 14.9999 9.35767ZM8.33325 14.9987C8.33325 11.3168 11.318 8.33203 14.9999 8.33203C18.6818 8.33203 21.6666 11.3168 21.6666 14.9987C21.6666 18.6806 18.6818 21.6654 14.9999 21.6654C11.318 21.6654 8.33325 18.6806 8.33325 14.9987Z" fill="#FFC121"/>
<path fill-rule="evenodd" clip-rule="evenodd" d="M14.9999 12.0927C15.2831 12.0927 15.5127 12.3223 15.5127 12.6055V15.3406C15.5127 15.6238 15.2831 15.8534 14.9999 15.8534C14.7167 15.8534 14.4871 15.6238 14.4871 15.3406V12.6055C14.4871 12.3223 14.7167 12.0927 14.9999 12.0927Z" fill="#FFC121"/>
<path d="M15.6837 17.3919C15.6837 17.7695 15.3776 18.0756 14.9999 18.0756C14.6223 18.0756 14.3162 17.7695 14.3162 17.3919C14.3162 17.0142 14.6223 16.7081 14.9999 16.7081C15.3776 16.7081 15.6837 17.0142 15.6837 17.3919Z" fill="#FFC121"/>
</svg>
