<svg width="18" height="18" viewBox="0 0 18 18" fill="none" xmlns="http://www.w3.org/2000/svg">
<g id="file-document">
<g id="file-document_2">
<path d="M5.25 13.5H12.75V12H5.25V13.5Z" fill="white"/>
<path d="M12.75 10.5H5.25V9H12.75V10.5Z" fill="white"/>
<path d="M5.25 7.5H8.25V6H5.25V7.5Z" fill="white"/>
<path fill-rule="evenodd" clip-rule="evenodd" d="M4.5 1.5C3.25736 1.5 2.25 2.50736 2.25 3.75V14.25C2.25 15.4926 3.25736 16.5 4.5 16.5H13.5C14.7426 16.5 15.75 15.4926 15.75 14.25V6.75C15.75 3.85051 13.3995 1.5 10.5 1.5H4.5ZM4.5 3H9.75V6.75H14.25V14.25C14.25 14.6642 13.9142 15 13.5 15H4.5C4.08579 15 3.75 14.6642 3.75 14.25V3.75C3.75 3.33579 4.08579 3 4.5 3ZM11.25 3.07501C12.4585 3.32033 13.456 4.14679 13.938 5.25H11.25V3.07501Z" fill="white"/>
</g>
</g>
</svg>
