<svg width="14" height="18" viewBox="0 0 14 18" fill="none" xmlns="http://www.w3.org/2000/svg">
<g id="Group">
<path id="Vector" d="M3.71912 3.63666H7.72945C7.9482 3.63666 8.09408 3.48665 8.09408 3.26169C8.09408 3.03673 7.9482 2.88672 7.72945 2.88672H3.71912C3.50037 2.88672 3.35449 3.03673 3.35449 3.26169C3.35449 3.48665 3.50037 3.63666 3.71912 3.63666Z" fill="white"/>
<path id="Vector_2" d="M2.88025 5.39838H8.56778C8.78653 5.39838 8.9324 5.24837 8.9324 5.02341C8.9324 4.79845 8.78653 4.64844 8.56778 4.64844L2.88025 4.64856C2.6615 4.64856 2.51562 4.79858 2.51562 5.02354C2.51575 5.24837 2.6615 5.39838 2.88025 5.39838V5.39838Z" fill="white"/>
<path id="Vector_3" d="M8.89584 6.82028C8.89584 6.59533 8.74996 6.44531 8.53121 6.44531L2.88025 6.44544C2.6615 6.44544 2.51562 6.59545 2.51562 6.82041C2.51562 7.04537 2.6615 7.19538 2.88025 7.19538H8.56778C8.75015 7.19526 8.8959 7.00784 8.8959 6.82028L8.89584 6.82028Z" fill="white"/>
<path id="Vector_4" d="M9.80766 9.25937L9.37015 10.1967L8.38577 10.3468C8.2399 10.3843 7.91177 10.5717 8.16702 10.9841L8.89615 11.6965L8.7139 12.7088C8.6774 12.8588 8.78678 13.2712 9.26078 13.1212L10.1358 12.6337L11.0108 13.1212C11.4483 13.2712 11.5577 12.8587 11.5577 12.7088L11.3754 11.6965L12.1045 10.9841C12.3962 10.6091 12.0317 10.3468 11.8858 10.3468L10.9014 10.1967L10.4639 9.25937C10.3545 8.99688 9.91703 8.99688 9.80766 9.25937ZM10.6098 10.909L11.0473 10.984L10.7192 11.3214C10.6463 11.3963 10.6098 11.5464 10.6098 11.6588L10.6827 12.1087L10.2817 11.8838C10.1723 11.8088 10.0629 11.8088 9.95353 11.8838L9.55253 12.1087L9.6254 11.6588C9.66191 11.5464 9.5889 11.3963 9.51603 11.3214L9.1879 10.984L9.6254 10.909C9.73478 10.909 9.84416 10.7965 9.91703 10.7216L10.1358 10.3092L10.3545 10.7216C10.391 10.7965 10.5004 10.8715 10.6098 10.909Z" fill="white"/>
<path id="Vector_5" d="M12.9427 0.749945C13.1615 0.749945 13.3074 0.59993 13.3074 0.374972C13.3074 0.150015 13.1615 0 12.9427 0H2.73426C1.20313 0.000125533 0 1.27493 0 2.8121V14.6973C0 14.9222 0.145876 15.0722 0.364627 15.0722H8.6406V17.6217C8.6406 17.9216 9.00523 18.1466 9.26035 17.8842L10.1719 16.9844L11.0834 17.8842C11.3021 18.1092 11.7031 17.9592 11.7031 17.6217V14.6597C13.0521 14.0598 14 12.6726 14 11.0604C14 9.29828 12.8697 7.79852 11.3021 7.311L11.302 3.6368C11.2291 1.5371 11.7031 0.749752 12.9426 0.749752L12.9427 0.749945ZM0.729253 14.3226V2.81217C0.729253 1.68738 1.64076 0.750009 2.73451 0.750009H11.193C10.5002 1.5749 10.5002 2.92464 10.5002 3.63692V7.19865C10.2815 7.16111 10.1356 7.16111 9.88048 7.19865L9.88036 3.63692C9.88036 2.92452 9.95324 2.36212 10.0626 1.83726C10.0991 1.72478 10.0626 1.42488 9.69798 1.38735H2.73452C1.96889 1.38735 1.31263 2.02468 1.31263 2.84957V13.3477C1.31263 13.5727 1.45851 13.7227 1.67726 13.7227L7.32822 13.7226C7.54698 13.9475 7.76573 14.1725 8.02098 14.3599H0.729069L0.729253 14.3226ZM6.78147 12.9729H2.04176V2.84977C2.04176 2.47479 2.33339 2.13736 2.73451 2.13736H9.26048C9.1876 2.58727 9.1511 3.07472 9.1511 3.63712V7.31132C7.51047 7.76124 6.30734 9.261 6.30734 11.098C6.34384 11.7729 6.48959 12.4103 6.78134 12.9727L6.78147 12.9729ZM10.9377 16.7219L10.3909 16.1971C10.245 16.0471 10.0262 16.0471 9.88048 16.1971L9.3336 16.7219V14.9223C9.58886 14.9598 9.84398 14.9972 10.1357 14.9972C10.4274 14.9972 10.6826 14.9597 10.9379 14.9223L10.9377 16.7219ZM13.1981 11.098C13.1981 12.8227 11.8127 14.2474 10.1356 14.2474C8.45848 14.2474 7.07309 12.8227 7.07309 11.098C7.07309 9.37328 8.45848 7.94859 10.1356 7.94859C11.8127 7.94859 13.1981 9.33588 13.1981 11.098Z" fill="white"/>
</g>
</svg>
