<svg width="18" height="18" viewBox="0 0 18 18" fill="none" xmlns="http://www.w3.org/2000/svg">
<g id="Group 40319">
<path id="Vector" fill-rule="evenodd" clip-rule="evenodd" d="M5.40023 0.000143547C5.89731 0.000143547 6.30019 0.37492 6.30019 0.837317V1.25598H11.7003V0.837317C11.7003 0.37492 12.1032 0.000143547 12.6002 0.000143547C13.0973 0.000143547 13.5002 0.37492 13.5002 0.837317V1.25723C13.9281 1.25989 14.3021 1.26816 14.6268 1.29283C15.1327 1.33123 15.5977 1.41379 16.0345 1.6208C16.7119 1.94191 17.2626 2.45421 17.6077 3.08435C17.8302 3.49067 17.9189 3.92335 17.9602 4.39386C18 4.847 18 5.40315 18 6.07703V13.1789C18 13.853 18 14.4091 17.9602 14.8621C17.9189 15.3328 17.8302 15.7653 17.6077 16.1716C17.2625 16.8018 16.7117 17.3141 16.0345 17.635C15.5977 17.842 15.1326 17.9246 14.6268 17.963C14.1396 18 13.5418 18 12.8174 18H5.1828C4.45838 18 3.86036 18 3.37338 17.963C2.86744 17.9246 2.40245 17.842 1.96566 17.635C1.28826 17.3139 0.737528 16.8016 0.392347 16.1716C0.169806 15.7653 0.0810592 15.3326 0.0397756 14.8621C1.60935e-07 14.409 0 13.8528 0 13.1789V6.07703C0 5.40315 1.60935e-07 4.84686 0.0397756 4.39372C0.0810592 3.92307 0.169806 3.49052 0.392347 3.08421C0.737535 2.45407 1.28826 1.94176 1.96566 1.62066C2.40245 1.41365 2.86759 1.33109 3.37338 1.29269C3.69808 1.26802 4.07219 1.25975 4.50011 1.25709V0.837173C4.50011 0.374776 4.903 0 5.40007 0L5.40023 0.000143547ZM4.50027 2.93186C4.09931 2.93453 3.78441 2.94168 3.52015 2.96186C3.12556 2.99185 2.92379 3.04624 2.78308 3.11295C2.44437 3.27343 2.16894 3.52963 1.9964 3.84474C1.92468 3.97565 1.86622 4.16332 1.83398 4.53039C1.80083 4.90728 1.80023 5.39476 1.80023 6.1118V6.2793H16.2003V6.1118C16.2003 5.39462 16.1996 4.90714 16.1664 4.53039C16.1342 4.16333 16.0757 3.97563 16.004 3.84474C15.8315 3.52966 15.5561 3.27344 15.2173 3.11295C15.0766 3.04623 14.8748 2.99185 14.4802 2.96186C14.216 2.94182 13.901 2.93453 13.5001 2.93186V3.34898C13.5001 3.81138 13.0972 4.18615 12.6002 4.18615C12.1031 4.18615 11.7002 3.81138 11.7002 3.34898V2.93032H6.30013V3.34898C6.30013 3.81138 5.89724 4.18615 5.40016 4.18615C4.90309 4.18615 4.5002 3.81138 4.5002 3.34898L4.50027 2.93186ZM16.2003 7.95376H1.80023V13.1446C1.80023 13.8618 1.80098 14.3493 1.83398 14.7262C1.86622 15.0933 1.92468 15.281 1.9964 15.4119C2.16892 15.7269 2.44434 15.9831 2.78307 16.1436C2.9238 16.2104 3.12555 16.2647 3.52015 16.2947C3.92531 16.3256 4.44935 16.3263 5.22017 16.3263H12.7803C13.5513 16.3263 14.0753 16.3256 14.4805 16.2947C14.8751 16.2647 15.0768 16.2104 15.2175 16.1436C15.5562 15.9832 15.8317 15.727 16.0042 15.4119C16.0759 15.2809 16.1344 15.0933 16.1666 14.7262C16.1998 14.3493 16.2005 13.8618 16.2005 13.1446L16.2003 7.95376Z" fill="white"/>
</g>
</svg>
