<svg width="539" height="538" viewBox="0 0 539 538" fill="none" xmlns="http://www.w3.org/2000/svg">
<circle cx="172" cy="516" r="269.5" stroke="#1778D9"/>
<circle cx="75" cy="431" r="269.5" stroke="#1778D9"/>
<circle cx="29" cy="270" r="269.5" stroke="#1778D9"/>
<circle cx="269" cy="546" r="269.5" stroke="#1778D9"/>
<circle cx="298.5" cy="278.5" r="11.5" fill="#1778D9"/>
<circle cx="75.5" cy="5.5" r="5.5" fill="#1778D9"/>
<circle cx="-1.5" cy="172.5" r="5.5" fill="#1778D9"/>
<circle cx="529.5" cy="476.5" r="5.5" fill="#1778D9"/>
<circle cx="439.5" cy="538.5" r="5.5" fill="#1778D9"/>
<circle cx="249.5" cy="114.5" r="3.5" fill="#1778D9"/>
<circle cx="126.5" cy="167.5" r="3.5" fill="#1778D9"/>
<circle cx="23.5" cy="434.5" r="3.5" fill="#1778D9"/>
<circle cx="164.5" cy="297.5" r="3.5" fill="#1778D9"/>
<circle cx="287.5" cy="348.5" r="3.5" fill="#1778D9"/>
<circle cx="228.5" cy="451.5" r="3.5" fill="#1778D9"/>
<circle cx="119.5" cy="523.5" r="3.5" fill="#1778D9"/>
<circle cx="61.5" cy="270.5" r="3.5" fill="#1778D9"/>
<circle cx="82.5" cy="352.5" r="3.5" fill="#1778D9"/>
<circle cx="249.5" cy="226.5" r="3.5" fill="#1778D9"/>
<circle cx="430.5" cy="330.5" r="3.5" fill="#1778D9"/>
<circle cx="426.5" cy="427.5" r="3.5" fill="#1778D9"/>
<circle cx="345.5" cy="309.5" r="3.5" fill="#1778D9"/>
</svg>
