<svg width="18" height="18" viewBox="0 0 18 18" fill="none" xmlns="http://www.w3.org/2000/svg">
<g id="Group 40226">
<g id="Group">
<path id="Vector" fill-rule="evenodd" clip-rule="evenodd" d="M17.0103 3.50933C17.1178 3.40458 10.1095 0.523781 8.88398 0C8.86252 0 1.14459 3.87605 0.00523888 4.42578C-0.0378185 4.45193 0.198681 7.20182 0.198681 7.20182C0.220147 7.22797 0.220147 7.22797 1.61757 8.06598C2.2195 8.4327 8.49692 12.3088 8.53984 12.2826C11.3131 10.2399 14.1508 8.24938 16.9026 6.18048C16.9026 6.15433 16.7521 6.10188 16.7306 6.10188C16.6446 6.07573 9.20612 11.392 8.45371 11.9422C8.43224 11.9422 0.477923 7.09731 0.477923 7.04463C0.434866 6.2852 0.327411 5.47332 0.305944 4.68759C0.305944 4.68759 8.21702 9.3756 8.41082 9.34945C8.71184 9.297 16.2575 4.24236 17.0099 3.50916L17.0103 3.50933Z" fill="white"/>
<path id="Vector_2" fill-rule="evenodd" clip-rule="evenodd" d="M16.6883 6.78101L16.4088 6.59766C14.087 8.30003 11.7653 9.97607 9.44364 11.6786C9.40058 11.6786 14.3668 9.42634 16.6241 8.40492C17.5916 7.95977 17.8925 7.77641 17.9999 7.69778C18.0214 7.67163 16.839 6.91205 16.6885 6.78114L16.6883 6.78101Z" fill="white"/>
<path id="Vector_3" fill-rule="evenodd" clip-rule="evenodd" d="M8.21767 12.2054C8.21767 12.2054 5.18645 10.3198 4.60614 9.95312C4.58468 9.95312 6.41204 11.8387 7.27191 12.6244C7.27191 12.6244 8.08887 12.2577 8.2178 12.2054L8.21767 12.2054Z" fill="white"/>
<path id="Vector_4" fill-rule="evenodd" clip-rule="evenodd" d="M1.66084 8.16997L1.4458 8.03906C1.4458 8.27472 1.46727 8.87708 1.46727 9.06044C1.46727 9.06044 1.70377 9.40085 2.43474 10.1866C2.8432 10.6317 7.29324 15.4505 7.29324 15.4505C8.94862 14.6911 17.8274 10.3173 17.8056 10.2912C17.7196 10.2126 17.6336 10.134 17.5476 10.0817V10.265C17.5261 10.3436 7.35751 15.1626 7.35751 15.1626C5.76664 13.5388 4.21886 11.7842 2.67101 10.1343C1.91857 9.32242 1.76805 9.11292 1.72513 9.00815C1.70366 8.982 1.68207 8.35349 1.66061 8.17013L1.66084 8.16997Z" fill="white"/>
<path id="Vector_5" fill-rule="evenodd" clip-rule="evenodd" d="M12.9258 12.8339C12.9472 12.8077 11.3563 15.3743 11.3563 15.3743C10.6039 15.1386 9.87295 14.8767 9.14209 14.6149C10.002 14.1958 12.9903 12.7555 12.9689 12.7816C12.9474 12.8078 12.9043 12.8602 12.9043 12.8602C12.9043 12.8864 12.9043 12.8602 12.9258 12.8341L12.9258 12.8339Z" fill="white"/>
<path id="Vector_6" fill-rule="evenodd" clip-rule="evenodd" d="M2.47748 10.2656L1.05859 11.7585C2.4344 12.2561 3.81037 12.7799 5.2076 13.225C5.2076 13.225 3.5093 11.3918 2.92883 10.7894C2.47742 10.2918 2.47742 10.2656 2.47742 10.2656H2.47748Z" fill="white"/>
<path id="Vector_7" fill-rule="evenodd" clip-rule="evenodd" d="M1.42463 11.9435C1.42463 11.9173 1.16666 11.8387 1.12361 11.8387C1.08055 11.8126 1.05908 11.8126 1.05908 11.8126C1.05908 11.8126 1.18813 14.2743 1.20959 14.2743C1.20959 14.2743 1.20959 14.3005 2.90789 14.9028C4.58473 15.5314 7.9384 16.7622 9.61523 17.3908C11.2921 18.0193 11.2921 18.0193 11.2921 17.9932C12.109 16.6051 14.9036 11.7861 14.8392 11.8126C14.7962 11.8388 14.6672 11.8912 14.6027 11.9174C14.3447 12.0483 11.7864 16.8411 11.1629 17.7054C11.1629 17.7054 3.81042 15.0079 3.14417 14.7721C1.53184 14.1697 1.53184 14.1697 1.51038 14.1697C1.51038 14.1697 1.40293 12.1794 1.4244 11.9436L1.42463 11.9435Z" fill="white"/>
</g>
</g>
</svg>
