<svg width="16" height="16" viewBox="0 0 16 16" fill="none" xmlns="http://www.w3.org/2000/svg">
<g id="Search">
<path id="Ellipse 2 (Stroke)" fill-rule="evenodd" clip-rule="evenodd" d="M7.65828 2.35767C4.73109 2.35767 2.35914 4.72774 2.35914 7.65011C2.35914 10.5725 4.73109 12.9425 7.65828 12.9425C9.11865 12.9425 10.4401 12.3532 11.3991 11.3987C12.3623 10.4398 12.9574 9.11481 12.9574 7.65011C12.9574 4.72774 10.5855 2.35767 7.65828 2.35767ZM1.3335 7.65011C1.3335 4.16017 4.16576 1.33203 7.65828 1.33203C11.1508 1.33203 13.9831 4.16017 13.9831 7.65011C13.9831 9.21368 13.414 10.6452 12.4724 11.748L14.5164 13.7897C14.7168 13.9899 14.717 14.3146 14.5168 14.515C14.3167 14.7153 13.992 14.7155 13.7916 14.5154L11.7456 12.4718C10.6435 13.4049 9.21632 13.9682 7.65828 13.9682C4.16576 13.9682 1.3335 11.14 1.3335 7.65011Z" fill="#9E99A6"/>
</g>
</svg>
