<svg width="30" height="30" viewBox="0 0 30 30" fill="none" xmlns="http://www.w3.org/2000/svg">
<g id="Group 40778">
<circle id="Ellipse 648" cx="15" cy="15" r="15" fill="#0094FF" fill-opacity="0.12"/>
<g id="Group">
<path id="Vector" d="M20.639 8H9.36099C8.73498 8.00081 8.13484 8.29663 7.69226 8.82246C7.24969 9.34841 7.0007 10.0613 7 10.805V18.195C7.00068 18.9387 7.24968 19.6516 7.69226 20.1775C8.13484 20.7034 8.73498 20.9992 9.36099 21H20.639C21.265 20.9992 21.8652 20.7034 22.3077 20.1775C22.7503 19.6516 22.9993 18.9387 23 18.195V10.805C22.9993 10.0613 22.7503 9.34841 22.3077 8.82246C21.8652 8.29664 21.265 8.00083 20.639 8ZM22.0625 10.8048V18.1947C22.0628 18.4768 22.0033 18.7545 21.8894 19.0021L17.2681 15.5404L21.9364 10.111C22.0196 10.329 22.0625 10.5654 22.0624 10.8048L22.0625 10.8048ZM8.10988 19.0012C7.99599 18.7536 7.93648 18.476 7.93682 18.194V10.8051C7.9367 10.5657 7.97957 10.3292 8.06268 10.1113L12.7318 15.5407L8.10988 19.0012ZM8.70968 9.30229C8.9109 9.17849 9.13436 9.11401 9.36099 9.11415H20.639C20.8655 9.11401 21.0888 9.17849 21.2899 9.30202L16.1885 15.238C15.8697 15.6045 15.4436 15.8095 15.0001 15.8095C14.5565 15.8095 14.1303 15.6045 13.8116 15.238L8.70968 9.30229ZM9.36099 19.8861C9.18394 19.8861 9.0086 19.8467 8.84385 19.7699L13.4447 16.3235C13.8974 16.7119 14.4417 16.9209 15.0001 16.9209C15.5585 16.9209 16.1028 16.7119 16.5555 16.3235L21.1564 19.7699C20.9915 19.8467 20.8161 19.8861 20.639 19.8861H9.36099Z" fill="#0094FF"/>
</g>
</g>
</svg>
