<svg width="18" height="18" viewBox="0 0 18 18" fill="none" xmlns="http://www.w3.org/2000/svg">
<g id="Group">
<path id="Vector" d="M17.5737 15.6041L15.1465 15.5666L14.6767 14.7807L15.1857 14.1071L17.6129 14.1446C17.887 14.1446 18.0827 13.8826 17.9652 13.6207C17.4562 12.4981 16.2818 11.7497 14.9898 11.7122C13.8154 11.7122 12.7192 12.311 12.1319 13.2465L5.86795 13.1717C5.3199 12.1988 4.22369 11.5625 3.04921 11.5625C1.75729 11.5625 0.582818 12.2736 0.0347757 13.3962C-0.0826716 13.6582 0.113029 13.9201 0.387118 13.9201L2.81432 13.9575L3.28411 14.6686L2.81432 15.4545L0.387118 15.417C0.113029 15.417 -0.0826716 15.679 0.0347757 15.9409C0.543759 17.101 1.71823 17.8494 3.01015 17.8494C4.18463 17.8868 5.28085 17.2506 5.86808 16.3151L12.1321 16.3899C12.6801 17.3628 13.7763 17.9991 14.9508 17.9991H14.99C16.2819 17.9991 17.4564 17.288 17.9654 16.1654C18.0435 15.8661 17.8476 15.6041 17.5737 15.6041ZM14.9115 17.2132C13.9327 17.2132 13.0715 16.6519 12.68 15.8286C12.6017 15.6789 12.4843 15.6041 12.3276 15.6041L5.59386 15.5293C5.43722 15.5293 5.31977 15.6041 5.24152 15.7538C4.81092 16.5771 3.9104 17.101 2.97082 17.101C2.18789 17.101 1.4832 16.7267 1.01341 16.1654L2.97082 16.2028C3.12747 16.2028 3.24491 16.128 3.32317 16.0158L4.02785 14.8557C4.1061 14.7434 4.1061 14.5937 4.02785 14.4814L3.32317 13.3962C3.24491 13.2839 3.12747 13.2091 3.01002 13.2091L1.05261 13.1717C1.5224 12.6104 2.22708 12.2736 3.01002 12.311C3.98879 12.311 4.84998 12.8723 5.24152 13.6957C5.31977 13.8454 5.43722 13.9202 5.59386 13.9202L12.3276 13.995C12.4843 13.995 12.6017 13.9202 12.68 13.7705C13.1106 12.9471 13.9719 12.4233 14.9507 12.4233C15.7336 12.4233 16.4383 12.7975 16.9081 13.3589L14.9507 13.3214C14.8332 13.3214 14.6766 13.3962 14.6375 13.4711L13.8936 14.519C13.8154 14.6313 13.8154 14.781 13.8936 14.9306L14.5983 16.128C14.6766 16.2403 14.794 16.3151 14.9507 16.3151L16.9081 16.3526C16.3992 16.8764 15.6945 17.2132 14.9115 17.2132Z" fill="#F1F5F8"/>
<path id="Vector_2" d="M3.59766 5.23901H4.06745C3.95 5.72554 3.87175 6.2494 3.87175 6.77326C3.87175 9.99143 6.1815 12.4988 8.96125 12.4988C11.7408 12.4988 14.0507 9.9915 14.0507 6.77326C14.0507 6.2494 13.9725 5.76287 13.855 5.23901H14.3248C14.5597 5.23901 14.7554 5.05194 14.7164 4.82741C14.3246 2.05824 11.8582 0 8.96111 0C6.06406 0 3.5978 2.05824 3.20619 4.82741C3.167 5.05194 3.36284 5.23901 3.59773 5.23901H3.59766ZM13.2673 6.77339C13.2673 9.58003 11.3099 11.7506 8.96098 11.7506C6.65123 11.7506 4.65469 9.58009 4.65469 6.77339C4.65469 6.24953 4.73294 5.72554 4.85039 5.23914H13.0324C13.1891 5.72554 13.2673 6.2494 13.2673 6.77339H13.2673ZM7.94321 3.51769C7.94321 2.95637 8.413 2.54477 8.96105 2.54477C9.50909 2.54477 9.97888 2.99383 9.97888 3.51769C9.97888 4.04156 9.54828 4.49062 8.92185 4.49062C8.37381 4.49062 7.94321 4.04156 7.94321 3.51769ZM8.96105 0.748393C11.31 0.748393 13.3459 2.32011 13.8546 4.49068H10.4486C10.6443 4.22869 10.7617 3.85455 10.7617 3.51776C10.7617 2.54483 9.93962 1.79631 8.96084 1.79631C7.98207 1.79631 7.15994 2.58217 7.15994 3.51776C7.15994 3.89202 7.27739 4.22881 7.47309 4.49068H4.06712C4.57623 2.32017 6.61203 0.748393 8.96098 0.748393H8.96105Z" fill="#F1F5F8"/>
<path id="Vector_3" d="M8.06055 8.79614C8.06055 9.02067 8.21719 9.1704 8.45208 9.1704H9.50911C9.744 9.1704 9.90064 9.02067 9.90064 8.79614C9.90064 8.5716 9.744 8.42188 9.50911 8.42188H8.45208C8.21706 8.42188 8.06055 8.5716 8.06055 8.79614Z" fill="#F1F5F8"/>
<path id="Vector_4" d="M10.2128 6.88524H11.5047C11.7396 6.88524 11.8963 6.73551 11.8963 6.51098C11.8963 6.28645 11.7396 6.13672 11.5047 6.13672H10.2128C9.97793 6.13672 9.82129 6.28645 9.82129 6.51098C9.82142 6.73551 10.0171 6.88524 10.2128 6.88524Z" fill="#F1F5F8"/>
<path id="Vector_5" d="M7.70738 6.13672H6.41546C6.18057 6.13672 6.02393 6.28645 6.02393 6.51098C6.02393 6.73551 6.18057 6.88524 6.41546 6.88524H7.70738C7.94228 6.88524 8.09892 6.73551 8.09892 6.51098C8.09879 6.28645 7.90309 6.13672 7.70738 6.13672Z" fill="#F1F5F8"/>
</g>
</svg>
