<svg width="30" height="30" viewBox="0 0 30 30" fill="none" xmlns="http://www.w3.org/2000/svg">
<circle cx="15" cy="15" r="15" fill="#0094FF" fill-opacity="0.12"/>
<path d="M18.7337 23C16.6144 23 13.7004 21.5097 11.0939 18.905C7.42491 15.236 5.96726 10.9472 7.77384 9.13865L9.43487 7.47761C9.73857 7.17191 10.1517 7 10.5826 7C11.0135 7 11.4267 7.17191 11.7304 7.47761L13.3913 9.13679C13.541 9.28776 13.6585 9.46758 13.7365 9.66531C13.8624 9.96111 13.8965 10.288 13.8343 10.6034C13.7721 10.9188 13.6165 11.2083 13.3878 11.4342L11.9048 12.9172C12.0271 13.8951 12.7389 15.1301 13.8031 16.1943C14.8672 17.2583 16.1039 17.9701 17.0818 18.0924L18.5648 16.6094C18.7922 16.3788 19.084 16.2223 19.4019 16.1604C19.7197 16.0985 20.0489 16.1341 20.3462 16.2625C20.5383 16.3415 20.7126 16.4582 20.8585 16.6058L22.5194 18.2667V18.2668C22.8253 18.5705 22.9972 18.9837 22.9972 19.4145C22.9972 19.8455 22.8253 20.2587 22.5194 20.5624L20.8603 22.2233C20.3354 22.75 19.602 22.9999 18.7338 22.9999L18.7337 23ZM10.5816 7.90024V7.90011C10.3896 7.89899 10.2052 7.97472 10.0693 8.11039L8.40835 9.76957C7.00623 11.1717 8.52697 15.0615 11.7284 18.2651C14.9299 21.4684 18.8215 22.9928 20.2237 21.5907L21.8828 19.9297H21.883C22.0201 19.7946 22.0974 19.61 22.0974 19.4174C22.0974 19.2248 22.0201 19.0402 21.883 18.9051L20.2238 17.2441H20.2237C20.1608 17.1799 20.0856 17.1292 20.0026 17.0949C19.8692 17.0365 19.7212 17.0196 19.5779 17.0462C19.4347 17.0727 19.3027 17.1417 19.1991 17.2441L17.5687 18.8746V18.8745C17.4791 18.9632 17.3567 19.0108 17.2307 19.0057C15.994 18.959 14.475 18.1357 13.1682 16.8306C11.8612 15.5255 11.0398 14.0048 10.9913 12.768C10.9857 12.642 11.0332 12.5193 11.1225 12.4301L12.7529 10.7997C12.8547 10.6984 12.9238 10.5688 12.9514 10.4279C12.979 10.287 12.9637 10.141 12.9075 10.0087C12.8728 9.92094 12.8201 9.84144 12.7529 9.77511L11.0937 8.11408C10.9579 7.9784 10.7734 7.90267 10.5814 7.9038L10.5816 7.90024Z" fill="#0094FF"/>
</svg>
