<svg width="30" height="30" viewBox="0 0 30 30" fill="none" xmlns="http://www.w3.org/2000/svg">
<g id="Group 40859">
<circle id="Ellipse 655" cx="15" cy="15" r="15" fill="#F1F5F8"/>
<g id="Group 1914">
<path id="Vector" d="M22.2412 16.6509C21.7879 16.7428 21.3261 16.7886 20.8634 16.7875C19.0261 16.7855 17.2647 16.0652 15.9656 14.7843C14.6664 13.5034 13.9357 11.7668 13.9336 9.95534C13.9312 9.2293 14.0498 8.50768 14.2846 7.81947C14.3563 7.60929 14.3091 7.3775 14.1607 7.21097C14.0122 7.04446 13.7849 6.96863 13.5645 7.01202C11.6748 7.38926 9.98068 8.41173 8.78049 9.89932C7.58026 11.3869 6.95084 13.2442 7.003 15.1446C7.05531 17.0446 7.78571 18.8659 9.06596 20.2869C10.3462 21.708 12.094 22.6387 14.0015 22.9146C15.9092 23.1903 17.8542 22.7938 19.4947 21.7946C21.1349 20.7956 22.3651 19.2579 22.9685 17.4526C23.0387 17.242 22.9896 17.0103 22.8397 16.845C22.6898 16.6796 22.4617 16.6057 22.2415 16.6509L22.2412 16.6509ZM15.1935 21.7564C13.5648 21.758 11.9874 21.1939 10.7386 20.1631C9.48969 19.1323 8.64889 17.7009 8.36384 16.1199C8.07879 14.5389 8.36778 12.9095 9.18003 11.5174C9.99214 10.1255 11.2757 9.06019 12.8052 8.50826C12.5187 10.0647 12.7021 11.6699 13.3324 13.1246C13.9628 14.5794 15.0124 15.8196 16.3512 16.6915C17.6899 17.5635 19.2589 18.0288 20.8634 18.0298C21.0341 18.0298 21.2048 18.0248 21.373 18.0143H21.3731C20.7964 19.1418 19.9132 20.0888 18.8218 20.7497C17.7304 21.4106 16.4742 21.7591 15.1934 21.7564L15.1935 21.7564Z" fill="#0094FF"/>
</g>
</g>
</svg>
